<?xml version="1.0" ?><!DOCTYPE svg  PUBLIC '-//W3C//DTD SVG 1.1//EN'  'http://www.w3.org/Graphics/SVG/1.1/DTD/svg11.dtd'><svg enable-background="new 0 0 50 50" height="50px" id="Layer_1" version="1.1" viewBox="0 0 50 50" width="50px" xml:space="preserve" xmlns="http://www.w3.org/2000/svg" xmlns:xlink="http://www.w3.org/1999/xlink"><g><g><path d="M50,45.233C50,47.866,47.866,50,45.233,50H4.767C2.134,50,0,47.866,0,45.233V4.767     C0,2.134,2.134,0,4.767,0h40.466C47.866,0,50,2.134,50,4.767V45.233z" fill="#FF0000"/><path d="M37.029,15.342L15.342,37.029L28.313,50h16.92C47.866,50,50,47.866,50,45.233v-16.92L37.029,15.342z" opacity="0.2"/><g><path d="M37.029,32.482c0.601,0.601,0.601,1.576,0,2.177l-2.371,2.371c-0.601,0.601-1.576,0.601-2.177,0      L12.971,17.518c-0.601-0.601-0.601-1.576,0-2.177l2.371-2.371c0.601-0.601,1.576-0.601,2.177,0L37.029,32.482z" fill="#FFFFFF"/><path d="M32.482,12.971c0.601-0.601,1.576-0.601,2.177,0l2.371,2.371c0.601,0.601,0.601,1.576,0,2.177      L17.518,37.029c-0.601,0.601-1.576,0.601-2.177,0l-2.371-2.371c-0.601-0.601-0.601-1.576,0-2.177L32.482,12.971z" fill="#FFFFFF"/></g></g></g></svg>